<?xml version="1.0" encoding="UTF-8"?> <svg xmlns="http://www.w3.org/2000/svg" xmlns:xlink="http://www.w3.org/1999/xlink" id="Layer_1" x="0px" y="0px" viewBox="0 0 256 180" style="enable-background:new 0 0 256 180;" xml:space="preserve"> <style type="text/css"> .st0{fill:#00A1E0;} .st1{fill:#FFFFFF;} </style> <g> <path class="st0" d="M106.6,19.7c8.2-8.6,19.7-13.9,32.4-13.9c16.9,0,31.6,9.4,39.5,23.4c6.8-3,14.4-4.7,22.3-4.7 c30.4,0,55.1,24.9,55.1,55.6c0,30.7-24.7,55.6-55.1,55.6c-3.7,0-7.3-0.4-10.9-1.1c-6.9,12.3-20.1,20.6-35.2,20.6 c-6.3,0-12.3-1.5-17.6-4.1c-7,16.5-23.3,28-42.3,28c-19.8,0-36.7-12.5-43.2-30.1c-2.8,0.6-5.8,0.9-8.8,0.9 c-23.6,0-42.7-19.3-42.7-43.1c0-16,8.6-29.9,21.3-37.4c-2.6-6-4.1-12.7-4.1-19.7c0-27.4,22.2-49.6,49.7-49.6 C83.2,0.1,97.5,7.8,106.6,19.7"></path> <g> <path class="st1" d="M98,88.6H85.3l-2.7,7.6h-5.9l12.4-32.7h5.1l12.4,32.7h-5.9L98,88.6z M86.9,84h9.5l-4.7-13.6L86.9,84z"></path> <path class="st1" d="M130,84.3c0,3.8-0.9,6.8-2.6,9c-1.7,2.2-4,3.4-6.9,3.4c-2.7,0-4.8-0.9-6.4-2.6v11.5h-5.5V71.9h5l0.2,2.5 c1.6-1.9,3.8-2.9,6.5-2.9c3,0,5.3,1.1,7,3.3c1.7,2.2,2.5,5.3,2.5,9.2V84.3z M124.6,83.8c0-2.4-0.5-4.3-1.4-5.8 c-1-1.4-2.3-2.1-4.1-2.1c-2.2,0-3.8,0.9-4.8,2.8v10.8c1,1.9,2.6,2.8,4.9,2.8c1.7,0,3.1-0.7,4.1-2.1 C124.1,88.8,124.6,86.6,124.6,83.8z"></path> <path class="st1" d="M145.3,96.6c-3.5,0-6.3-1.1-8.4-3.3c-2.1-2.2-3.2-5.1-3.2-8.7V84c0-2.4,0.5-4.6,1.4-6.5 c0.9-1.9,2.2-3.4,3.9-4.5c1.7-1.1,3.6-1.6,5.7-1.6c3.3,0,5.9,1.1,7.7,3.2c1.8,2.1,2.7,5.1,2.7,9v2.2h-15.9c0.2,2,0.8,3.6,2,4.8 c1.2,1.2,2.7,1.8,4.4,1.8c2.5,0,4.5-1,6.1-3l2.9,2.8c-1,1.5-2.3,2.6-3.9,3.4C149.2,96.2,147.3,96.6,145.3,96.6z M144.7,75.8 c-1.5,0-2.7,0.5-3.6,1.6c-0.9,1-1.5,2.5-1.8,4.4h10.4v-0.4c-0.1-1.8-0.6-3.2-1.5-4.1C147.3,76.3,146.2,75.8,144.7,75.8z"></path> <path class="st1" d="M168,79.9l4.6-8h6.1l-7.4,12l7.7,12.3h-6l-4.9-8.3l-4.8,8.3h-6.1l7.7-12.3l-7.4-12h6L168,79.9z"></path> </g> </g> </svg> 