<?xml version="1.0" encoding="UTF-8" standalone="no"?>  <!-- Created with Inkscape (http://www.inkscape.org/) -->    <svg     width="816"     height="40"     viewBox="0 0 816 40"     version="1.1"     id="svg1"     xmlns="http://www.w3.org/2000/svg"     xmlns:svg="http://www.w3.org/2000/svg">    <defs       id="defs1" />    <g       id="layer1">      <rect         style="fill:#ffffff;fill-opacity:1;stroke-width:1.34929;stroke-dasharray:none"         id="rect38"         width="905.87445"         height="110.01132"         x="-46.411026"         y="-30.940683" />      <g         id="g38">        <g           id="g1"           transform="matrix(1.3489627,0,0,1.3489627,11.81,-2.2163823)"           style="stroke-width:1.00024;stroke-dasharray:none">          <path             fill="#2297F3"             opacity="1"             stroke="none"             d="m 172.47311,11.814087 c -0.29344,-0.169496 -0.57477,-0.331787 -0.84956,-0.490309 -0.001,-0.06546 0.0466,-0.06935 0.0739,-0.09146 0.0246,-0.01993 0.0543,-0.03354 0.0817,-0.05003 0.55319,-0.33305 1.10639,-0.666076 1.65954,-0.999178 0.89818,-0.540862 1.79631,-1.0818115 2.69455,-1.6225658 0.0545,-0.03282 0.10989,-0.064219 0.17429,-0.1017708 1.55959,0.90044 3.11981,1.8012366 4.66576,2.6937986 0.0121,0.0227 0.0154,0.02808 0.0179,0.03382 0.002,0.0058 0.006,0.01202 0.006,0.01805 0.001,1.777885 0.002,3.55577 0.004,5.333654 8e-5,0.05095 0,0.101909 0,0.148015 -0.0571,0.03899 -0.0923,-0.0022 -0.12787,-0.0225 -0.37168,-0.212869 -0.74228,-0.427635 -1.11322,-0.641797 -1.63319,-0.942933 -3.26644,-1.885786 -4.8996,-2.828781 -0.79167,-0.457117 -1.5832,-0.91448 -2.38689,-1.378943 z"             id="path2"             style="fill:#912ec8;fill-opacity:1;stroke-width:1.00024;stroke-dasharray:none" />          <path             fill="#90CAF8"             opacity="1"             stroke="none"             d="m 168.9935,23.438144 c -0.31316,0.188155 -0.61361,0.370347 -0.91463,0.551599 -0.55278,0.332843 -1.10588,0.665136 -1.65888,0.99762 -0.0164,0.0099 -0.0339,0.01827 -0.0495,0.0292 -0.10931,0.07624 -0.21845,0.106791 -0.32812,8.36e-4 -0.57534,-0.332395 -1.15023,-0.665574 -1.72616,-0.996937 -0.47077,-0.27085 -0.94321,-0.538783 -1.41413,-0.809389 -0.40436,-0.232365 -0.80784,-0.466282 -1.21105,-0.700654 -0.0492,-0.0286 -0.0943,-0.06429 -0.13308,-0.09104 -0.008,-0.01613 -0.011,-0.02171 -0.013,-0.02775 -0.002,-0.006 -0.004,-0.01247 -0.004,-0.01874 -0.001,-1.791313 -0.002,-3.582623 -0.004,-5.373936 0,-0.03197 0.001,-0.06394 0.002,-0.0959 1.3e-4,-0.0064 5.2e-4,-0.01289 0.002,-0.01906 0.002,-0.0061 0.004,-0.0122 0.007,-0.01778 0.003,-0.0053 0.007,-0.0098 0.0113,-0.01607 0.0563,-0.0214 0.097,0.01892 0.13887,0.0427 0.18332,0.104106 0.36457,0.211856 0.54644,0.318505 0.34168,0.200372 0.68328,0.400904 1.02493,0.601361 0.30307,0.177825 0.60628,0.355424 0.9092,0.53353 0.34694,0.203998 0.69394,0.407897 1.04033,0.612838 0.39036,0.230958 0.77905,0.464779 1.17041,0.694036 0.2922,0.171171 0.58813,0.335955 0.88126,0.505548 0.61935,0.358331 1.23747,0.7188 1.85706,1.076736 0.38175,0.220539 0.76524,0.438074 1.14802,0.65685 0.18859,0.107795 0.37756,0.214949 0.5657,0.323538 0.0207,0.01193 0.037,0.03145 0.0571,0.04904 -0.0155,0.02076 -0.0235,0.04105 -0.0384,0.05002 -0.61802,0.372924 -1.23665,0.744833 -1.86765,1.123259 z"             id="path3"             style="fill:#912ec8;fill-opacity:1;stroke-width:1.00024;stroke-dasharray:none" />          <path             fill="#43A5F6"             opacity="1"             stroke="none"             d="m 177.87422,24.216283 c -0.55553,0.319215 -1.09885,0.631451 -1.64264,0.942862 -0.009,0.0053 -0.0242,7.17e-4 -0.036,7.17e-4 -0.0364,-0.01955 -0.0284,-0.05441 -0.0299,-0.08419 -0.002,-0.04468 -0.001,-0.08955 -0.001,-0.134341 -3.4e-4,-1.695639 -0.002,-3.39128 -5.1e-4,-5.086915 0.002,-1.765819 0.007,-3.531633 0.0109,-5.297449 1.3e-4,-0.05664 0,-0.113285 0,-0.16171 0.0714,-0.04163 0.11222,0.0018 0.15379,0.0255 0.25559,0.145722 0.50956,0.294266 0.76433,0.441454 1.0633,0.614344 2.12673,1.228462 3.19001,1.842855 0.20489,0.118393 0.40947,0.237367 0.61376,0.356799 0.0327,0.0191 0.0631,0.04205 0.1048,0.07014 0,0.05434 -1e-5,0.111309 -1e-5,0.168273 0,1.638051 9e-5,3.276104 -1.3e-4,4.914155 0,0.208592 0.0171,0.187232 -0.1737,0.297263 -0.98065,0.565619 -1.96105,1.131671 -2.95371,1.704632 z"             id="path4-2"             style="fill:#912ec8;fill-opacity:1;stroke-width:1.00024;stroke-dasharray:none" />          <path             fill="#1E89E4"             opacity="1"             stroke="none"             d="m 167.94954,7.4587503 c 1.10846,-0.6396653 2.20465,-1.2724976 3.29581,-1.9024346 0.1648,0.068862 4.56121,2.60673 4.69408,2.7097146 -0.0315,0.060086 -0.0954,0.080152 -0.14732,0.1115675 -0.54697,0.3312316 -1.09496,0.6607782 -1.64266,0.9908153 -1.0461,0.6303709 -2.0896,1.2651119 -3.13923,1.8895479 -0.65388,0.388999 -1.317,0.762469 -1.97601,1.142847 -0.72548,0.418741 -1.45094,0.8375 -2.17659,1.255916 -0.0481,0.02775 -0.0924,0.06757 -0.16756,0.06423 -0.002,-0.06758 -0.007,-0.129426 -0.007,-0.191283 -0.002,-0.492553 -0.002,-0.985114 -0.005,-1.477662 -0.006,-1.208847 -0.014,-2.4176903 -0.021,-3.6265347 -3.5e-4,-0.070053 -9e-5,-0.1401085 -9e-5,-0.2191905 0.42883,-0.2481374 0.85445,-0.4944171 1.29234,-0.7475315 z"             id="path5-8"             style="fill:#912ec8;fill-opacity:1;stroke-width:1.00024;stroke-dasharray:none" />          <path             fill="#65B5F6"             opacity="1"             stroke="none"             d="m 174.09847,20.825599 c 0.56092,-0.32224 1.10928,-0.638158 1.65811,-0.953247 0.009,-0.0054 0.0245,-6.56e-4 0.0374,-6.56e-4 0.0381,0.01571 0.0321,0.05091 0.0333,0.08099 0.002,0.0511 0.001,0.102337 0.001,0.153516 0,1.682524 0,3.365046 0,5.04757 0,0.0762 0,0.15241 0,0.234141 -0.0536,0.035 -0.0997,0.06837 -0.14872,0.09675 -0.89647,0.518743 -1.79313,1.037137 -2.69007,1.555062 -0.5149,0.29732 -1.02953,0.595121 -1.54599,0.889727 -0.19632,0.111989 -0.16406,0.116434 -0.3635,0.0016 -0.67576,-0.389524 -1.3495,-0.78254 -2.02489,-1.172702 -0.70863,-0.409369 -1.41826,-0.816987 -2.12746,-1.225368 -0.0942,-0.05424 -0.18886,-0.107697 -0.28229,-0.163221 -0.026,-0.01543 -0.0483,-0.037 -0.0694,-0.05346 0.005,-0.01648 0.007,-0.02254 0.01,-0.02782 0.003,-0.0056 0.007,-0.01099 0.0111,-0.01529 0.009,-0.0088 0.0188,-0.01745 0.0291,-0.02493 0.0155,-0.01127 0.0314,-0.02219 0.0478,-0.03205 1.546,-0.927607 3.08889,-1.860453 4.63932,-2.780582 0.91813,-0.544878 1.84819,-1.069658 2.7854,-1.609874 z"             id="path6-5"             style="fill:#912ec8;fill-opacity:1;stroke-width:1.00024;stroke-dasharray:none" />          <path             fill="#BBDEFA"             opacity="1"             stroke="none"             d="m 164.59086,9.3969061 c 0.24435,-0.1410902 0.4766,-0.274954 0.70909,-0.4083822 0.20485,-0.1175625 0.40995,-0.2346714 0.61499,-0.3519021 0.0942,-0.053866 0.18798,-0.1085262 0.28313,-0.1606735 0.0269,-0.01471 0.0579,-0.02181 0.0917,-0.034124 0.0331,0.1519766 0.0518,0.2946765 0.0517,0.4420089 -6e-4,3.3588708 3.5e-4,6.7177408 0.001,10.0766108 0,0.07558 -0.002,0.151161 -0.003,0.241546 -0.0391,-0.01014 -0.0644,-0.01116 -0.0836,-0.02248 -0.51674,-0.304736 -1.03189,-0.612211 -1.54942,-0.915613 -0.42398,-0.248556 -0.85191,-0.490367 -1.27581,-0.739067 -0.37976,-0.222808 -0.75565,-0.452202 -1.13473,-0.676189 -0.19784,-0.116896 -0.39896,-0.228231 -0.59836,-0.342493 -0.0331,-0.019 -0.0666,-0.03812 -0.0972,-0.0608 -0.0377,-0.02791 -0.059,-0.06639 -0.0589,-0.114931 9e-5,-0.04478 -6e-4,-0.08956 -6e-4,-0.134342 -9e-5,-1.60586 -9e-5,-3.211721 -9e-5,-4.817582 0,-0.03199 0.003,-0.06433 -5.1e-4,-0.0959 -0.0112,-0.09733 0.038,-0.148333 0.11984,-0.194209 0.31172,-0.174738 0.61893,-0.357506 0.92869,-0.535755 0.28771,-0.165551 0.57673,-0.328815 0.86478,-0.493764 0.16617,-0.095156 0.3313,-0.1921229 0.49739,-0.287421 0.18824,-0.1080062 0.37715,-0.2148349 0.5654,-0.3228242 0.0221,-0.012666 0.0418,-0.029432 0.0746,-0.051712 z"             id="path7-9"             style="fill:#912ec8;fill-opacity:1;stroke-width:1.00024;stroke-dasharray:none" />          <path             fill="#43A5F6"             opacity="1"             stroke="none"             d="m 174.47705,14.871641 c 0.0102,0.01507 0.0275,0.02934 0.0292,0.04536 0.005,0.04424 0.004,0.08921 0.004,0.133899 1.8e-4,1.112613 9e-5,2.225225 9e-5,3.337839 0,0.05093 0,0.101868 0,0.160035 -0.0498,0.03265 -0.0958,0.06617 -0.14487,0.09453 -1.01817,0.588597 -2.03666,1.176653 -3.0553,1.764455 -0.0219,0.01264 -0.0462,0.02106 -0.0832,0.0139 -0.0143,-1.285041 -0.0149,-2.552537 -0.003,-3.825526 0.2603,-0.136159 0.50833,-0.267047 0.75662,-0.397427 0.27088,-0.142244 0.54151,-0.284989 0.81316,-0.425774 0.43026,-0.222996 0.86234,-0.442525 1.29136,-0.667889 0.13434,-0.07057 0.2613,-0.155201 0.39164,-0.233395 z"             id="path8-4"             style="fill:#912ec8;fill-opacity:1;stroke-width:1.00024;stroke-dasharray:none" />          <path             fill="#BBDEFA"             opacity="1"             stroke="none"             d="m 171.3049,16.601619 c 5.2e-4,1.267497 0.001,2.534994 0.002,3.820307 -0.12556,-0.01345 -0.22728,-0.09368 -0.33813,-0.153833 -0.22429,-0.121698 -0.44232,-0.254928 -0.66298,-0.383296 -0.18208,-0.10592 -0.36413,-0.211882 -0.5464,-0.317467 -0.22092,-0.127978 -0.44187,-0.255894 -0.66314,-0.383259 -0.19917,-0.114651 -0.39904,-0.228102 -0.59813,-0.342891 -0.13269,-0.07651 -0.26259,-0.158145 -0.39762,-0.230242 -0.0722,-0.03857 -0.10277,-0.08999 -0.097,-0.169096 0.003,-0.03818 3.5e-4,-0.07674 3.5e-4,-0.115133 0,-1.062087 -3.5e-4,-2.124176 6e-4,-3.186263 8e-5,-0.06941 0.0106,-0.138819 0.0423,-0.218006 0.17845,0.06938 0.33102,0.14819 0.48319,0.227766 0.92499,0.483706 1.84989,0.967588 2.77482,1.451413 z"             id="path9-3"             style="fill:#912ec8;fill-opacity:1;stroke-width:1.00024;stroke-dasharray:none" />        </g>        <path           d="m 280.49254,28.675576 q -0.70639,0.308242 -1.28434,0.577953 -0.56511,0.269712 -1.48984,0.56511 -0.78345,0.244025 -1.70817,0.410989 -0.91188,0.179808 -2.01642,0.179808 -2.08063,0 -3.7888,-0.577953 -1.69533,-0.590797 -2.95399,-1.836608 -1.23296,-1.220124 -1.92651,-3.095261 -0.69354,-1.887981 -0.69354,-4.379603 0,-2.363187 0.66786,-4.225481 0.66785,-1.862294 1.92651,-3.146635 1.22012,-1.245811 2.94114,-1.900825 1.73386,-0.655013 3.84018,-0.655013 1.54121,0 3.06957,0.372458 1.54121,0.372459 3.41635,1.310028 v 3.018201 h -0.19265 q -1.57974,-1.322871 -3.1338,-1.926511 -1.55405,-0.60364 -3.32644,-0.60364 -1.4513,0 -2.62005,0.475206 -1.15591,0.462362 -2.06779,1.451305 -0.8862,0.963256 -1.38709,2.440248 -0.48805,1.464148 -0.48805,3.390659 0,2.016416 0.53942,3.467721 0.55227,1.451305 1.41278,2.363187 0.89904,0.950412 2.09347,1.412775 1.20728,0.449519 2.543,0.449519 1.83661,0 3.44203,-0.629327 1.60543,-0.629327 3.00536,-1.887981 h 0.17981 z m 15.63043,-5.779534 q 0,3.506251 -1.79808,5.535509 -1.79808,2.029259 -4.81628,2.029259 -3.04389,0 -4.84197,-2.029259 -1.78523,-2.029258 -1.78523,-5.535509 0,-3.506251 1.78523,-5.535509 1.79808,-2.042102 4.84197,-2.042102 3.0182,0 4.81628,2.042102 1.79808,2.029258 1.79808,5.535509 z m -2.49163,0 q 0,-2.78702 -1.09169,-4.135578 -1.09169,-1.361401 -3.03104,-1.361401 -1.96504,0 -3.05673,1.361401 -1.07885,1.348558 -1.07885,4.135578 0,2.697116 1.09169,4.097047 1.09169,1.387089 3.04389,1.387089 1.92651,0 3.0182,-1.374245 1.10453,-1.387088 1.10453,-4.109891 z m 17.86518,7.166622 h -2.41456 v -1.502679 q -1.04031,0.899039 -2.17053,1.399932 -1.13022,0.500893 -2.45309,0.500893 -2.56869,0 -4.08421,-1.977885 -1.50268,-1.977885 -1.50268,-5.484136 0,-1.823764 0.51374,-3.249382 0.52658,-1.425618 1.41277,-2.427404 0.87336,-0.976099 2.02926,-1.489836 1.16875,-0.513736 2.41456,-0.513736 1.13022,0 2.00358,0.244025 0.87335,0.231181 1.8366,0.732074 v -6.21621 h 2.41456 z m -2.41456,-3.531937 v -8.232625 q -0.9761,-0.436676 -1.7467,-0.60364 -0.77061,-0.166965 -1.68249,-0.166965 -2.02926,0 -3.15948,1.412775 -1.13022,1.412775 -1.13022,4.007144 0,2.555838 0.87336,3.891552 0.87335,1.322872 2.79986,1.322872 1.02747,0 2.08063,-0.44952 1.05316,-0.462362 1.96504,-1.181593 z m 19.17521,-3.39066 h -10.57012 q 0,1.322871 0.39814,2.311813 0.39815,0.976099 1.09169,1.605426 0.66786,0.616484 1.57974,0.924726 0.92473,0.308242 2.02926,0.308242 1.46415,0 2.94114,-0.577954 1.48984,-0.590797 2.11916,-1.155907 h 0.12844 v 2.632899 q -1.22012,0.513737 -2.49162,0.860509 -1.2715,0.346772 -2.67143,0.346772 -3.57047,0 -5.57404,-1.926512 -2.00357,-1.939354 -2.00357,-5.496979 0,-3.519093 1.91367,-5.586882 1.92651,-2.067789 5.0603,-2.067789 2.90261,0 4.4695,1.69533 1.57974,1.69533 1.57974,4.816278 z m -2.35034,-1.849451 q -0.0128,-1.900825 -0.96326,-2.941141 -0.93756,-1.040316 -2.86408,-1.040316 -1.93935,0 -3.09526,1.143064 -1.14306,1.143063 -1.29718,2.838393 z m 13.45989,8.643614 q -0.6807,0.179808 -1.48983,0.295398 -0.79629,0.115591 -1.42562,0.115591 -2.19622,0 -3.33929,-1.181594 -1.14306,-1.181593 -1.14306,-3.788805 v -7.628985 h -1.63111 v -2.029258 h 1.63111 v -4.122735 h 2.41456 v 4.122735 h 4.98324 v 2.029258 h -4.98324 v 6.537295 q 0,1.13022 0.0514,1.772391 0.0514,0.629327 0.35961,1.181593 0.28256,0.513736 0.77061,0.757761 0.50089,0.231182 1.51552,0.231182 0.59079,0 1.23296,-0.166965 0.64218,-0.179807 0.92473,-0.295398 h 0.12843 z m 15.19376,-14.217653 -8.3739,19.637571 h -2.58153 l 2.67143,-5.985028 -5.71532,-13.652543 h 2.62006 l 4.40529,10.634342 4.44382,-10.634342 z"           id="text1"           style="fill:#912ec8;fill-opacity:1;stroke-width:0.246593"           aria-label="Codety" />      </g>      <rect         style="opacity:0.2;fill:#999999;fill-opacity:1;stroke-width:2.17265;stroke-dasharray:none"         id="rect32"         width="547.35327"         height="40.107723"         x="342.79855"         y="-572.47821"         transform="rotate(45)" />      <rect         style="opacity:0.2;fill:#999999;fill-opacity:1;stroke-width:1.65185;stroke-dasharray:none"         id="rect32-2"         width="547.35327"         height="23.184193"         x="285.31628"         y="-506.25464"         transform="rotate(45)" />      <rect         style="opacity:0.2;fill:#999999;fill-opacity:1;stroke-width:1.16176;stroke-dasharray:none"         id="rect32-2-1"         width="547.35327"         height="11.467902"         x="240.89111"         y="-455.80194"         transform="rotate(45)" />      <rect         style="opacity:0.2;fill:#999999;fill-opacity:1;stroke-width:2.17265;stroke-dasharray:none"         id="rect32-23"         width="547.35327"         height="40.107723"         x="230.43234"         y="-395.76157"         transform="rotate(45)" />      <rect         style="opacity:0.2;fill:#999999;fill-opacity:1;stroke-width:1.65185;stroke-dasharray:none"         id="rect32-2-2"         width="547.35327"         height="23.184193"         x="172.95007"         y="-329.53799"         transform="rotate(45)" />      <rect         style="opacity:0.2;fill:#999999;fill-opacity:1;stroke-width:1.16176;stroke-dasharray:none"         id="rect32-2-1-6"         width="547.35327"         height="11.467902"         x="128.5249"         y="-279.0853"         transform="rotate(45)" />      <rect         style="opacity:0.2;fill:#999999;fill-opacity:1;stroke-width:2.17265;stroke-dasharray:none"         id="rect32-21"         width="547.35327"         height="40.107723"         x="-184.6395"         y="14.089581"         transform="rotate(-45)" />      <rect         style="opacity:0.2;fill:#999999;fill-opacity:1;stroke-width:1.65185;stroke-dasharray:none"         id="rect32-2-5"         width="547.35327"         height="23.184193"         x="-242.12167"         y="80.313187"         transform="rotate(-45)" />      <rect         style="opacity:0.2;fill:#999999;fill-opacity:1;stroke-width:1.16176;stroke-dasharray:none"         id="rect32-2-1-4"         width="547.35327"         height="11.467902"         x="-286.54684"         y="130.76588"         transform="rotate(-45)" />      <g         id="g39">        <path           d="m 667.53449,29.929905 q -0.38447,0.167769 -0.69904,0.314567 -0.30758,0.146798 -0.81088,0.307577 -0.42642,0.132817 -0.92973,0.223692 -0.49631,0.09786 -1.09749,0.09786 -1.13244,0 -2.06216,-0.314567 -0.92273,-0.321557 -1.60779,-0.999624 -0.67107,-0.664087 -1.04855,-1.684682 -0.37748,-1.027586 -0.37748,-2.38372 0,-1.28623 0.3635,-2.299836 0.3635,-1.013605 1.04855,-1.712643 0.66409,-0.678067 1.6008,-1.034576 0.9437,-0.35651 2.09013,-0.35651 0.83884,0 1.6707,0.202721 0.83884,0.202721 1.85944,0.713019 v 1.64274 h -0.10486 q -0.85982,-0.72001 -1.70565,-1.048557 -0.84584,-0.328548 -1.81051,-0.328548 -0.78991,0 -1.42604,0.258644 -0.62913,0.251653 -1.12545,0.789913 -0.48234,0.524278 -0.75496,1.328172 -0.26563,0.796904 -0.26563,1.845461 0,1.09749 0.29359,1.887403 0.30059,0.789913 0.76894,1.28623 0.48933,0.517288 1.13944,0.768942 0.65709,0.244663 1.38409,0.244663 0.99963,0 1.87342,-0.342529 0.8738,-0.342528 1.63575,-1.027586 h 0.0979 z m 8.50729,-3.145672 q 0,1.908374 -0.97865,3.012855 -0.97866,1.10448 -2.6214,1.10448 -1.65672,0 -2.63537,-1.10448 -0.97166,-1.104481 -0.97166,-3.012855 0,-1.908374 0.97166,-3.012854 0.97865,-1.11147 2.63537,-1.11147 1.64274,0 2.6214,1.11147 0.97865,1.10448 0.97865,3.012854 z m -1.35613,0 q 0,-1.516912 -0.59419,-2.250902 -0.59418,-0.740981 -1.64973,-0.740981 -1.06952,0 -1.66371,0.740981 -0.58719,0.73399 -0.58719,2.250902 0,1.46798 0.59418,2.229932 0.59419,0.754961 1.65672,0.754961 1.04856,0 1.64274,-0.747971 0.60118,-0.754961 0.60118,-2.236922 z m 14.78465,3.900633 h -1.31419 v -4.445882 q 0,-0.503308 -0.0489,-0.971663 -0.0419,-0.468356 -0.18874,-0.747971 -0.16078,-0.300587 -0.46137,-0.454375 -0.30058,-0.153788 -0.8668,-0.153788 -0.55224,0 -1.10448,0.279615 -0.55225,0.272625 -1.10449,0.699038 0.021,0.160779 0.035,0.377481 0.014,0.209711 0.014,0.419423 v 4.998122 h -1.31419 v -4.445882 q 0,-0.517289 -0.0489,-0.978654 -0.0419,-0.468355 -0.18874,-0.747971 -0.16078,-0.300586 -0.46136,-0.447384 -0.30059,-0.153788 -0.86681,-0.153788 -0.53826,0 -1.08351,0.265634 -0.53826,0.265635 -1.07652,0.678067 v 5.829978 h -1.31419 V 22.87661 h 1.31419 v 0.866808 q 0.61516,-0.510298 1.22332,-0.796904 0.61515,-0.286605 1.3072,-0.286605 0.7969,0 1.34914,0.335538 0.55923,0.335538 0.83186,0.92972 0.7969,-0.671076 1.454,-0.964672 0.65709,-0.300586 1.40507,-0.300586 1.28623,0 1.89439,0.782922 0.61515,0.775932 0.61515,2.174009 z m 13.92484,0 h -1.31419 v -4.445882 q 0,-0.503308 -0.0489,-0.971663 -0.042,-0.468356 -0.18874,-0.747971 -0.16078,-0.300587 -0.46137,-0.454375 -0.30058,-0.153788 -0.86681,-0.153788 -0.55224,0 -1.10448,0.279615 -0.55224,0.272625 -1.10448,0.699038 0.021,0.160779 0.035,0.377481 0.014,0.209711 0.014,0.419423 v 4.998122 h -1.3142 v -4.445882 q 0,-0.517289 -0.0489,-0.978654 -0.0419,-0.468355 -0.18874,-0.747971 -0.16078,-0.300586 -0.46136,-0.447384 -0.30059,-0.153788 -0.86681,-0.153788 -0.53826,0 -1.08351,0.265634 -0.53826,0.265635 -1.07652,0.678067 v 5.829978 h -1.31419 V 22.87661 h 1.31419 v 0.866808 q 0.61516,-0.510298 1.22332,-0.796904 0.61515,-0.286605 1.3072,-0.286605 0.7969,0 1.34914,0.335538 0.55923,0.335538 0.83186,0.92972 0.7969,-0.671076 1.454,-0.964672 0.65709,-0.300586 1.40506,-0.300586 1.28623,0 1.8944,0.782922 0.61515,0.775932 0.61515,2.174009 z m 9.00361,0 h -1.31419 v -0.866807 q -0.66409,0.524278 -1.27225,0.803894 -0.60816,0.279615 -1.34215,0.279615 -1.23031,0 -1.91537,-0.747971 -0.68505,-0.754961 -0.68505,-2.20896 V 22.87661 h 1.31419 v 4.445883 q 0,0.594182 0.0559,1.020595 0.0559,0.419423 0.23767,0.72001 0.18874,0.307576 0.48933,0.447384 0.30059,0.139808 0.8738,0.139808 0.5103,0 1.11147,-0.265635 0.60816,-0.265634 1.13244,-0.678067 V 22.87661 h 1.31419 z m 9.11546,0 h -1.31419 v -4.445882 q 0,-0.53826 -0.0629,-1.006615 -0.0629,-0.475346 -0.23069,-0.740981 -0.17476,-0.293596 -0.5033,-0.433403 -0.32855,-0.146798 -0.85283,-0.146798 -0.53826,0 -1.12545,0.265634 -0.58719,0.265635 -1.12545,0.678067 v 5.829978 h -1.3142 V 22.87661 h 1.31419 v 0.866808 q 0.61515,-0.510298 1.27225,-0.796904 0.65709,-0.286605 1.34914,-0.286605 1.26526,0 1.92934,0.761951 0.66409,0.761952 0.66409,2.19498 z m 3.94258,-9.115457 h -1.48196 v -1.363124 h 1.48196 z m -0.0839,9.115457 H 724.0587 V 22.87661 h 1.31419 z m 6.65484,-0.0699 q -0.37049,0.09787 -0.81088,0.160779 -0.43341,0.06291 -0.77594,0.06291 -1.19535,0 -1.81749,-0.643115 -0.62215,-0.643115 -0.62215,-2.062162 V 23.981091 H 727.1135 V 22.87661 h 0.88778 v -2.243912 h 1.31419 v 2.243912 h 2.71227 v 1.104481 h -2.71227 v 3.558103 q 0,0.615154 0.028,0.964673 0.028,0.342529 0.19574,0.643115 0.15378,0.279615 0.41942,0.412433 0.27262,0.125826 0.82486,0.125826 0.32156,0 0.67108,-0.09087 0.34952,-0.09787 0.50331,-0.160779 h 0.0699 z m 8.26962,-7.738352 -4.55773,10.688293 h -1.40506 l 1.454,-3.257518 -3.11072,-7.430775 h 1.42604 l 2.3977,5.788036 2.41867,-5.788036 z m 13.71513,7.808256 h -6.85756 V 20.276189 h 6.85756 v 1.230307 h -5.47347 v 2.852075 h 5.47347 v 1.230307 h -5.47347 v 3.865681 h 5.47347 z m 8.42341,0 h -1.31419 v -0.817875 q -0.56622,0.489327 -1.18138,0.761952 -0.61515,0.272625 -1.33516,0.272625 -1.39807,0 -2.22294,-1.076519 -0.81787,-1.076519 -0.81787,-2.984893 0,-0.992634 0.27961,-1.768566 0.28661,-0.775932 0.76894,-1.321182 0.47535,-0.531269 1.10448,-0.810884 0.63613,-0.279615 1.31419,-0.279615 0.61516,0 1.0905,0.132817 0.47535,0.125827 0.99963,0.398451 v -3.383344 h 1.31419 z m -1.31419,-1.922355 v -4.480834 q -0.53127,-0.237673 -0.95069,-0.328548 -0.41943,-0.09088 -0.91574,-0.09088 -1.10448,0 -1.71964,0.768942 -0.61515,0.768942 -0.61515,2.180999 0,1.391086 0.47535,2.118085 0.47534,0.72001 1.5239,0.72001 0.55923,0 1.13244,-0.244664 0.57321,-0.251653 1.06953,-0.643115 z m 5.31269,-7.193102 h -1.48196 v -1.363124 h 1.48196 z m -0.0839,9.115457 h -1.31419 v -7.80826 h 1.31419 z m 6.65484,-0.0699 q -0.37049,0.09787 -0.81089,0.160779 -0.4334,0.06291 -0.77593,0.06291 -1.19536,0 -1.8175,-0.643115 -0.62214,-0.643115 -0.62214,-2.062162 v -4.152286 h -0.88778 V 22.87661 h 0.88778 v -2.243912 h 1.31419 v 2.243912 h 2.71227 v 1.104481 h -2.71227 v 3.558103 q 0,0.615154 0.028,0.964673 0.028,0.342529 0.19573,0.643115 0.15379,0.279615 0.41942,0.412433 0.27263,0.125826 0.82487,0.125826 0.32156,0 0.67108,-0.09087 0.34951,-0.09787 0.5033,-0.160779 h 0.0699 z m 2.99887,-9.045553 h -1.48196 v -1.363124 h 1.48196 z m -0.0839,9.115457 h -1.31419 V 22.87661 h 1.31419 z m 9.25527,-3.900633 q 0,1.908374 -0.97865,3.012855 -0.97866,1.10448 -2.6214,1.10448 -1.65672,0 -2.63537,-1.10448 -0.97166,-1.104481 -0.97166,-3.012855 0,-1.908374 0.97166,-3.012854 0.97865,-1.11147 2.63537,-1.11147 1.64274,0 2.6214,1.11147 0.97865,1.10448 0.97865,3.012854 z m -1.35613,0 q 0,-1.516912 -0.59419,-2.250902 -0.59418,-0.740981 -1.64973,-0.740981 -1.06952,0 -1.66371,0.740981 -0.58719,0.73399 -0.58719,2.250902 0,1.46798 0.59418,2.229932 0.59419,0.754961 1.65672,0.754961 1.04856,0 1.64274,-0.747971 0.60118,-0.754961 0.60118,-2.236922 z m 9.91935,3.900633 h -1.31419 v -4.445882 q 0,-0.53826 -0.0629,-1.006615 -0.0629,-0.475346 -0.23069,-0.740981 -0.17476,-0.293596 -0.5033,-0.433403 -0.32855,-0.146798 -0.85283,-0.146798 -0.53826,0 -1.12545,0.265634 -0.58719,0.265635 -1.12545,0.678067 v 5.829978 h -1.31419 V 22.87661 h 1.31419 v 0.866808 q 0.61515,-0.510298 1.27225,-0.796904 0.65709,-0.286605 1.34914,-0.286605 1.26526,0 1.92935,0.761951 0.66408,0.761952 0.66408,2.19498 z"           id="text38"           style="fill:#4d4d4d;stroke-width:0.734387"           aria-label="Community Edition" />      </g>    </g>  </svg>  